<svg xmlns="http://www.w3.org/2000/svg" xmlns:xlink="http://www.w3.org/1999/xlink" width="50" zoomAndPan="magnify" viewBox="0 0 37.5 56.249997" height="75" preserveAspectRatio="xMidYMid meet" version="1.0"><defs><g/><clipPath id="feb0bfef4a"><path d="M 0 0 L 37.007812 0 L 37.007812 55.511719 L 0 55.511719 Z M 0 0 " clip-rule="nonzero"/></clipPath><clipPath id="881c2392a6"><path d="M 0.289062 1 L 20.65625 1 L 20.65625 5.738281 L 0.289062 5.738281 Z M 0.289062 1 " clip-rule="nonzero"/></clipPath><clipPath id="d19232fda8"><rect x="0" width="21" y="0" height="6"/></clipPath></defs><g clip-path="url(#feb0bfef4a)"><path fill="#ffffff" d="M 0 0 L 37.007812 0 L 37.007812 55.511719 L 0 55.511719 Z M 0 0 " fill-opacity="1" fill-rule="nonzero"/><path fill="#ffffff" d="M 0 0 L 37.007812 0 L 37.007812 55.511719 L 0 55.511719 Z M 0 0 " fill-opacity="1" fill-rule="nonzero"/></g><g transform="matrix(1, 0, 0, 1, 8, 26)"><g clip-path="url(#d19232fda8)"><g clip-path="url(#881c2392a6)"><g fill="#000000" fill-opacity="1"><g transform="translate(0.489664, 4.394736)"><g><path d="M 2.15625 -2.828125 L 2.15625 -2.359375 L 0.921875 -2.359375 L 0.921875 -1.609375 L 2.046875 -1.609375 L 2.046875 -1.140625 L 0.921875 -1.140625 L 0.921875 0 L 0.359375 0 L 0.359375 -2.828125 Z M 2.15625 -2.828125 "/></g></g><g transform="translate(2.767882, 4.394736)"><g><path d="M 0.578125 -2.390625 C 0.472656 -2.390625 0.390625 -2.414062 0.328125 -2.46875 C 0.273438 -2.53125 0.25 -2.609375 0.25 -2.703125 C 0.25 -2.785156 0.273438 -2.859375 0.328125 -2.921875 C 0.390625 -2.984375 0.472656 -3.015625 0.578125 -3.015625 C 0.640625 -3.015625 0.695312 -3 0.75 -2.96875 C 0.800781 -2.945312 0.835938 -2.910156 0.859375 -2.859375 C 0.890625 -2.816406 0.90625 -2.765625 0.90625 -2.703125 C 0.90625 -2.640625 0.890625 -2.582031 0.859375 -2.53125 C 0.835938 -2.488281 0.800781 -2.453125 0.75 -2.421875 C 0.695312 -2.398438 0.640625 -2.390625 0.578125 -2.390625 Z M 0.3125 0 L 0.3125 -2.125 L 0.84375 -2.125 L 0.84375 0 Z M 0.3125 0 "/></g></g><g transform="translate(3.912773, 4.394736)"><g><path d="M 0.59375 0 L 0.03125 0 L 0.640625 -1.109375 L 0.0625 -2.125 L 0.640625 -2.125 L 1.015625 -1.421875 L 1.046875 -1.421875 L 1.421875 -2.125 L 1.984375 -2.125 L 1.421875 -1.109375 L 2.015625 0 L 1.4375 0 L 1.046875 -0.78125 L 1 -0.78125 Z M 0.59375 0 "/></g></g><g transform="translate(5.957773, 4.394736)"><g><path d="M 0.875 0 L 0.359375 0 L 0.359375 -2.828125 L 1.09375 -2.828125 L 1.8125 -0.75 L 1.84375 -0.75 L 2.5625 -2.828125 L 3.28125 -2.828125 L 3.28125 0 L 2.75 0 L 2.75 -1.859375 L 2.703125 -1.875 L 2.046875 0 L 1.578125 0 L 0.921875 -1.875 L 0.875 -1.859375 Z M 0.875 0 "/></g></g><g transform="translate(9.594827, 4.394736)"><g><path d="M 0.46875 0.90625 C 0.375 0.90625 0.289062 0.894531 0.21875 0.875 C 0.144531 0.863281 0.0859375 0.847656 0.046875 0.828125 L 0.125 0.390625 L 0.15625 0.375 C 0.1875 0.394531 0.226562 0.410156 0.28125 0.421875 C 0.332031 0.429688 0.378906 0.4375 0.421875 0.4375 C 0.515625 0.4375 0.585938 0.425781 0.640625 0.40625 C 0.703125 0.382812 0.75 0.347656 0.78125 0.296875 C 0.820312 0.242188 0.859375 0.171875 0.890625 0.078125 L 0.046875 -2.125 L 0.609375 -2.125 L 1.140625 -0.65625 L 1.1875 -0.65625 L 1.703125 -2.125 L 2.234375 -2.125 L 1.390625 0.140625 C 1.316406 0.316406 1.238281 0.457031 1.15625 0.5625 C 1.070312 0.675781 0.972656 0.757812 0.859375 0.8125 C 0.753906 0.875 0.625 0.90625 0.46875 0.90625 Z M 0.46875 0.90625 "/></g></g><g transform="translate(11.876901, 4.394736)"><g><path d="M 0.359375 0 L 0.359375 -2.828125 L 1.5 -2.828125 C 1.789062 -2.828125 2.007812 -2.757812 2.15625 -2.625 C 2.3125 -2.488281 2.390625 -2.300781 2.390625 -2.0625 C 2.390625 -1.894531 2.34375 -1.753906 2.25 -1.640625 C 2.164062 -1.535156 2.035156 -1.453125 1.859375 -1.390625 L 1.859375 -1.34375 C 1.953125 -1.3125 2.023438 -1.253906 2.078125 -1.171875 C 2.128906 -1.097656 2.179688 -0.988281 2.234375 -0.84375 L 2.515625 0 L 1.9375 0 L 1.671875 -0.84375 C 1.640625 -0.925781 1.601562 -0.988281 1.5625 -1.03125 C 1.53125 -1.082031 1.488281 -1.117188 1.4375 -1.140625 C 1.382812 -1.160156 1.3125 -1.171875 1.21875 -1.171875 L 0.921875 -1.171875 L 0.921875 0 Z M 1.4375 -1.625 C 1.707031 -1.625 1.84375 -1.75 1.84375 -2 C 1.84375 -2.25 1.707031 -2.375 1.4375 -2.375 L 0.921875 -2.375 L 0.921875 -1.625 Z M 1.4375 -1.625 "/></g></g><g transform="translate(14.511693, 4.394736)"><g><path d="M 0.578125 -2.390625 C 0.472656 -2.390625 0.390625 -2.414062 0.328125 -2.46875 C 0.273438 -2.53125 0.25 -2.609375 0.25 -2.703125 C 0.25 -2.785156 0.273438 -2.859375 0.328125 -2.921875 C 0.390625 -2.984375 0.472656 -3.015625 0.578125 -3.015625 C 0.640625 -3.015625 0.695312 -3 0.75 -2.96875 C 0.800781 -2.945312 0.835938 -2.910156 0.859375 -2.859375 C 0.890625 -2.816406 0.90625 -2.765625 0.90625 -2.703125 C 0.90625 -2.640625 0.890625 -2.582031 0.859375 -2.53125 C 0.835938 -2.488281 0.800781 -2.453125 0.75 -2.421875 C 0.695312 -2.398438 0.640625 -2.390625 0.578125 -2.390625 Z M 0.3125 0 L 0.3125 -2.125 L 0.84375 -2.125 L 0.84375 0 Z M 0.3125 0 "/></g></g><g transform="translate(15.656584, 4.394736)"><g><path d="M 1.046875 0.046875 C 0.878906 0.046875 0.726562 0.00390625 0.59375 -0.078125 C 0.46875 -0.160156 0.367188 -0.285156 0.296875 -0.453125 C 0.222656 -0.617188 0.1875 -0.820312 0.1875 -1.0625 C 0.1875 -1.300781 0.222656 -1.503906 0.296875 -1.671875 C 0.378906 -1.835938 0.484375 -1.960938 0.609375 -2.046875 C 0.742188 -2.128906 0.898438 -2.171875 1.078125 -2.171875 C 1.210938 -2.171875 1.328125 -2.144531 1.421875 -2.09375 C 1.515625 -2.050781 1.597656 -1.984375 1.671875 -1.890625 L 1.703125 -1.890625 L 1.703125 -2.984375 L 2.25 -2.984375 L 2.25 0 L 1.703125 0 L 1.703125 -0.28125 L 1.671875 -0.28125 C 1.609375 -0.1875 1.523438 -0.109375 1.421875 -0.046875 C 1.316406 0.015625 1.191406 0.046875 1.046875 0.046875 Z M 1.21875 -0.40625 C 1.375 -0.40625 1.492188 -0.457031 1.578125 -0.5625 C 1.671875 -0.675781 1.71875 -0.84375 1.71875 -1.0625 C 1.71875 -1.28125 1.671875 -1.441406 1.578125 -1.546875 C 1.492188 -1.660156 1.375 -1.71875 1.21875 -1.71875 C 1.0625 -1.71875 0.941406 -1.664062 0.859375 -1.5625 C 0.773438 -1.457031 0.734375 -1.289062 0.734375 -1.0625 C 0.734375 -0.84375 0.773438 -0.675781 0.859375 -0.5625 C 0.941406 -0.457031 1.0625 -0.40625 1.21875 -0.40625 Z M 1.21875 -0.40625 "/></g></g><g transform="translate(18.204643, 4.394736)"><g><path d="M 2.109375 -0.9375 L 0.734375 -0.9375 C 0.753906 -0.757812 0.804688 -0.625 0.890625 -0.53125 C 0.984375 -0.445312 1.109375 -0.40625 1.265625 -0.40625 C 1.390625 -0.40625 1.488281 -0.425781 1.5625 -0.46875 C 1.632812 -0.519531 1.695312 -0.59375 1.75 -0.6875 L 1.78125 -0.6875 L 2.140625 -0.46875 C 2.066406 -0.3125 1.957031 -0.1875 1.8125 -0.09375 C 1.675781 0 1.492188 0.046875 1.265625 0.046875 C 1.046875 0.046875 0.851562 0.00390625 0.6875 -0.078125 C 0.53125 -0.160156 0.40625 -0.285156 0.3125 -0.453125 C 0.226562 -0.617188 0.1875 -0.820312 0.1875 -1.0625 C 0.1875 -1.300781 0.234375 -1.503906 0.328125 -1.671875 C 0.421875 -1.835938 0.546875 -1.960938 0.703125 -2.046875 C 0.859375 -2.128906 1.03125 -2.171875 1.21875 -2.171875 C 1.519531 -2.171875 1.75 -2.085938 1.90625 -1.921875 C 2.070312 -1.765625 2.15625 -1.535156 2.15625 -1.234375 C 2.15625 -1.117188 2.148438 -1.03125 2.140625 -0.96875 Z M 1.640625 -1.296875 C 1.640625 -1.453125 1.601562 -1.566406 1.53125 -1.640625 C 1.457031 -1.710938 1.351562 -1.75 1.21875 -1.75 C 0.945312 -1.75 0.789062 -1.597656 0.75 -1.296875 Z M 1.640625 -1.296875 "/></g></g></g></g></g></g></svg>