<svg xmlns="http://www.w3.org/2000/svg" xmlns:xlink="http://www.w3.org/1999/xlink" width="200" zoomAndPan="magnify" viewBox="0 0 150 67.499998" height="90" preserveAspectRatio="xMidYMid meet" version="1.0"><defs><g/><clipPath id="1ccfe5b182"><path d="M 0.550781 0 L 149.449219 0 L 149.449219 67.003906 L 0.550781 67.003906 Z M 0.550781 0 " clip-rule="nonzero"/></clipPath></defs><g clip-path="url(#1ccfe5b182)"><path fill="#ffffff" d="M 0.550781 0 L 149.449219 0 L 149.449219 67.003906 L 0.550781 67.003906 Z M 0.550781 0 " fill-opacity="1" fill-rule="nonzero"/><path fill="#ffffff" d="M 0.550781 0 L 149.449219 0 L 149.449219 67.003906 L 0.550781 67.003906 Z M 0.550781 0 " fill-opacity="1" fill-rule="nonzero"/></g><g fill="#000000" fill-opacity="1"><g transform="translate(40.293026, 44.347594)"><g><path d="M 7.46875 -9.765625 L 7.46875 -8.15625 L 3.203125 -8.15625 L 3.203125 -5.5625 L 7.078125 -5.5625 L 7.078125 -3.96875 L 3.203125 -3.96875 L 3.203125 0 L 1.265625 0 L 1.265625 -9.765625 Z M 7.46875 -9.765625 "/></g></g></g><g fill="#000000" fill-opacity="1"><g transform="translate(48.188368, 44.347594)"><g><path d="M 1.984375 -8.25 C 1.648438 -8.25 1.378906 -8.347656 1.171875 -8.546875 C 0.960938 -8.753906 0.859375 -9.019531 0.859375 -9.34375 C 0.859375 -9.65625 0.960938 -9.910156 1.171875 -10.109375 C 1.378906 -10.316406 1.648438 -10.421875 1.984375 -10.421875 C 2.203125 -10.421875 2.398438 -10.375 2.578125 -10.28125 C 2.753906 -10.1875 2.890625 -10.054688 2.984375 -9.890625 C 3.078125 -9.734375 3.125 -9.550781 3.125 -9.34375 C 3.125 -9.132812 3.078125 -8.945312 2.984375 -8.78125 C 2.890625 -8.613281 2.753906 -8.484375 2.578125 -8.390625 C 2.398438 -8.296875 2.203125 -8.25 1.984375 -8.25 Z M 1.0625 0 L 1.0625 -7.375 L 2.90625 -7.375 L 2.90625 0 Z M 1.0625 0 "/></g></g></g><g fill="#000000" fill-opacity="1"><g transform="translate(52.156078, 44.347594)"><g><path d="M 2.078125 0 L 0.125 0 L 2.234375 -3.828125 L 0.234375 -7.375 L 2.21875 -7.375 L 3.5 -4.953125 L 3.65625 -4.953125 L 4.9375 -7.375 L 6.84375 -7.375 L 4.921875 -3.828125 L 6.96875 0 L 5 0 L 3.609375 -2.6875 L 3.453125 -2.6875 Z M 2.078125 0 "/></g></g></g><g fill="#000000" fill-opacity="1"><g transform="translate(59.243183, 44.347594)"><g><path d="M 3.046875 0 L 1.265625 0 L 1.265625 -9.765625 L 3.796875 -9.765625 L 6.265625 -2.59375 L 6.40625 -2.59375 L 8.875 -9.765625 L 11.328125 -9.765625 L 11.328125 0 L 9.5 0 L 9.5 -6.453125 L 9.34375 -6.484375 L 7.078125 0 L 5.46875 0 L 3.203125 -6.484375 L 3.046875 -6.453125 Z M 3.046875 0 "/></g></g></g><g fill="#000000" fill-opacity="1"><g transform="translate(71.847676, 44.347594)"><g><path d="M 1.625 3.125 C 1.3125 3.125 1.023438 3.097656 0.765625 3.046875 C 0.515625 3.003906 0.304688 2.941406 0.140625 2.859375 L 0.4375 1.359375 L 0.5625 1.328125 C 0.675781 1.378906 0.8125 1.421875 0.96875 1.453125 C 1.132812 1.492188 1.304688 1.515625 1.484375 1.515625 C 1.785156 1.515625 2.035156 1.472656 2.234375 1.390625 C 2.429688 1.316406 2.597656 1.1875 2.734375 1 C 2.867188 0.820312 2.988281 0.578125 3.09375 0.265625 L 0.15625 -7.375 L 2.09375 -7.375 L 3.9375 -2.25 L 4.09375 -2.25 L 5.875 -7.375 L 7.765625 -7.375 L 4.796875 0.46875 C 4.554688 1.09375 4.296875 1.597656 4.015625 1.984375 C 3.734375 2.367188 3.398438 2.65625 3.015625 2.84375 C 2.628906 3.03125 2.164062 3.125 1.625 3.125 Z M 1.625 3.125 "/></g></g></g><g fill="#000000" fill-opacity="1"><g transform="translate(79.756378, 44.347594)"><g><path d="M 1.265625 0 L 1.265625 -9.765625 L 5.1875 -9.765625 C 6.195312 -9.765625 6.957031 -9.53125 7.46875 -9.0625 C 7.988281 -8.601562 8.25 -7.960938 8.25 -7.140625 C 8.25 -6.546875 8.097656 -6.0625 7.796875 -5.6875 C 7.503906 -5.3125 7.054688 -5.019531 6.453125 -4.8125 L 6.453125 -4.671875 C 6.765625 -4.546875 7.015625 -4.347656 7.203125 -4.078125 C 7.390625 -3.816406 7.566406 -3.425781 7.734375 -2.90625 L 8.71875 0 L 6.734375 0 L 5.78125 -2.921875 C 5.675781 -3.210938 5.5625 -3.4375 5.4375 -3.59375 C 5.320312 -3.757812 5.164062 -3.878906 4.96875 -3.953125 C 4.78125 -4.023438 4.535156 -4.0625 4.234375 -4.0625 L 3.203125 -4.0625 L 3.203125 0 Z M 4.953125 -5.59375 C 5.890625 -5.59375 6.359375 -6.03125 6.359375 -6.90625 C 6.359375 -7.789062 5.890625 -8.234375 4.953125 -8.234375 L 3.203125 -8.234375 L 3.203125 -5.59375 Z M 4.953125 -5.59375 "/></g></g></g><g fill="#000000" fill-opacity="1"><g transform="translate(88.887455, 44.347594)"><g><path d="M 1.984375 -8.25 C 1.648438 -8.25 1.378906 -8.347656 1.171875 -8.546875 C 0.960938 -8.753906 0.859375 -9.019531 0.859375 -9.34375 C 0.859375 -9.65625 0.960938 -9.910156 1.171875 -10.109375 C 1.378906 -10.316406 1.648438 -10.421875 1.984375 -10.421875 C 2.203125 -10.421875 2.398438 -10.375 2.578125 -10.28125 C 2.753906 -10.1875 2.890625 -10.054688 2.984375 -9.890625 C 3.078125 -9.734375 3.125 -9.550781 3.125 -9.34375 C 3.125 -9.132812 3.078125 -8.945312 2.984375 -8.78125 C 2.890625 -8.613281 2.753906 -8.484375 2.578125 -8.390625 C 2.398438 -8.296875 2.203125 -8.25 1.984375 -8.25 Z M 1.0625 0 L 1.0625 -7.375 L 2.90625 -7.375 L 2.90625 0 Z M 1.0625 0 "/></g></g></g><g fill="#000000" fill-opacity="1"><g transform="translate(92.855165, 44.347594)"><g><path d="M 3.640625 0.140625 C 3.054688 0.140625 2.539062 0 2.09375 -0.28125 C 1.644531 -0.5625 1.289062 -0.988281 1.03125 -1.5625 C 0.78125 -2.132812 0.65625 -2.84375 0.65625 -3.6875 C 0.65625 -4.53125 0.785156 -5.234375 1.046875 -5.796875 C 1.304688 -6.367188 1.664062 -6.796875 2.125 -7.078125 C 2.59375 -7.367188 3.128906 -7.515625 3.734375 -7.515625 C 4.191406 -7.515625 4.585938 -7.429688 4.921875 -7.265625 C 5.265625 -7.109375 5.550781 -6.863281 5.78125 -6.53125 L 5.921875 -6.5625 L 5.921875 -10.328125 L 7.765625 -10.328125 L 7.765625 0 L 5.921875 0 L 5.921875 -0.953125 L 5.78125 -0.984375 C 5.570312 -0.640625 5.289062 -0.363281 4.9375 -0.15625 C 4.582031 0.0390625 4.148438 0.140625 3.640625 0.140625 Z M 4.25 -1.4375 C 4.769531 -1.4375 5.179688 -1.617188 5.484375 -1.984375 C 5.785156 -2.359375 5.9375 -2.925781 5.9375 -3.6875 C 5.9375 -4.4375 5.785156 -5 5.484375 -5.375 C 5.179688 -5.75 4.769531 -5.9375 4.25 -5.9375 C 3.695312 -5.9375 3.273438 -5.753906 2.984375 -5.390625 C 2.703125 -5.035156 2.5625 -4.46875 2.5625 -3.6875 C 2.5625 -2.90625 2.703125 -2.332031 2.984375 -1.96875 C 3.273438 -1.613281 3.695312 -1.4375 4.25 -1.4375 Z M 4.25 -1.4375 "/></g></g></g><g fill="#000000" fill-opacity="1"><g transform="translate(101.685658, 44.347594)"><g><path d="M 7.28125 -3.265625 L 2.546875 -3.265625 C 2.597656 -2.628906 2.78125 -2.164062 3.09375 -1.875 C 3.40625 -1.582031 3.832031 -1.4375 4.375 -1.4375 C 4.789062 -1.4375 5.128906 -1.515625 5.390625 -1.671875 C 5.660156 -1.828125 5.875 -2.066406 6.03125 -2.390625 L 6.171875 -2.390625 L 7.40625 -1.59375 C 7.164062 -1.082031 6.800781 -0.664062 6.3125 -0.34375 C 5.832031 -0.0195312 5.1875 0.140625 4.375 0.140625 C 3.613281 0.140625 2.953125 -0.00390625 2.390625 -0.296875 C 1.835938 -0.585938 1.410156 -1.019531 1.109375 -1.59375 C 0.804688 -2.164062 0.65625 -2.863281 0.65625 -3.6875 C 0.65625 -4.519531 0.8125 -5.222656 1.125 -5.796875 C 1.445312 -6.367188 1.878906 -6.796875 2.421875 -7.078125 C 2.960938 -7.367188 3.566406 -7.515625 4.234375 -7.515625 C 5.273438 -7.515625 6.070312 -7.238281 6.625 -6.6875 C 7.1875 -6.132812 7.46875 -5.320312 7.46875 -4.25 C 7.46875 -3.863281 7.453125 -3.5625 7.421875 -3.34375 Z M 5.6875 -4.46875 C 5.675781 -5.03125 5.546875 -5.4375 5.296875 -5.6875 C 5.054688 -5.945312 4.703125 -6.078125 4.234375 -6.078125 C 3.296875 -6.078125 2.75 -5.539062 2.59375 -4.46875 Z M 5.6875 -4.46875 "/></g></g></g></svg>