<svg xmlns="http://www.w3.org/2000/svg" xmlns:xlink="http://www.w3.org/1999/xlink" width="200" zoomAndPan="magnify" viewBox="0 0 150 112.499997" height="150" preserveAspectRatio="xMidYMid meet" version="1.0"><defs><g/><clipPath id="d506745ec3"><path d="M 0.332031 0 L 149.667969 0 L 149.667969 112.003906 L 0.332031 112.003906 Z M 0.332031 0 " clip-rule="nonzero"/></clipPath><clipPath id="f97bb9a3aa"><rect x="0" width="52" y="0" height="15"/></clipPath></defs><g clip-path="url(#d506745ec3)"><path fill="#ffffff" d="M 0.332031 0 L 149.667969 0 L 149.667969 112.003906 L 0.332031 112.003906 Z M 0.332031 0 " fill-opacity="1" fill-rule="nonzero"/><path fill="#ffffff" d="M 0.332031 0 L 149.667969 0 L 149.667969 112.003906 L 0.332031 112.003906 Z M 0.332031 0 " fill-opacity="1" fill-rule="nonzero"/></g><g transform="matrix(1, 0, 0, 1, 49, 52)"><g clip-path="url(#f97bb9a3aa)"><g fill="#000000" fill-opacity="1"><g transform="translate(0.744193, 11.426432)"><g><path d="M 5.421875 -7.109375 L 5.421875 -5.921875 L 2.328125 -5.921875 L 2.328125 -4.046875 L 5.140625 -4.046875 L 5.140625 -2.890625 L 2.328125 -2.890625 L 2.328125 0 L 0.921875 0 L 0.921875 -7.109375 Z M 5.421875 -7.109375 "/></g></g><g transform="translate(6.490139, 11.426432)"><g><path d="M 1.4375 -6 C 1.195312 -6 1 -6.070312 0.84375 -6.21875 C 0.695312 -6.363281 0.625 -6.554688 0.625 -6.796875 C 0.625 -7.023438 0.695312 -7.210938 0.84375 -7.359375 C 1 -7.503906 1.195312 -7.578125 1.4375 -7.578125 C 1.601562 -7.578125 1.75 -7.539062 1.875 -7.46875 C 2 -7.40625 2.097656 -7.3125 2.171875 -7.1875 C 2.242188 -7.070312 2.28125 -6.941406 2.28125 -6.796875 C 2.28125 -6.640625 2.242188 -6.5 2.171875 -6.375 C 2.097656 -6.257812 2 -6.164062 1.875 -6.09375 C 1.75 -6.03125 1.601562 -6 1.4375 -6 Z M 0.765625 0 L 0.765625 -5.359375 L 2.125 -5.359375 L 2.125 0 Z M 0.765625 0 "/></g></g><g transform="translate(9.377696, 11.426432)"><g><path d="M 1.515625 0 L 0.09375 0 L 1.625 -2.78125 L 0.171875 -5.359375 L 1.609375 -5.359375 L 2.546875 -3.59375 L 2.65625 -3.59375 L 3.59375 -5.359375 L 4.984375 -5.359375 L 3.578125 -2.78125 L 5.0625 0 L 3.625 0 L 2.625 -1.953125 L 2.5 -1.953125 Z M 1.515625 0 "/></g></g><g transform="translate(14.535437, 11.426432)"><g><path d="M 2.21875 0 L 0.921875 0 L 0.921875 -7.109375 L 2.765625 -7.109375 L 4.5625 -1.875 L 4.65625 -1.875 L 6.453125 -7.109375 L 8.25 -7.109375 L 8.25 0 L 6.90625 0 L 6.90625 -4.6875 L 6.796875 -4.71875 L 5.140625 0 L 3.96875 0 L 2.328125 -4.71875 L 2.21875 -4.6875 Z M 2.21875 0 "/></g></g><g transform="translate(23.708534, 11.426432)"><g><path d="M 1.1875 2.28125 C 0.957031 2.28125 0.75 2.257812 0.5625 2.21875 C 0.375 2.1875 0.222656 2.140625 0.109375 2.078125 L 0.328125 0.984375 L 0.40625 0.96875 C 0.488281 1.007812 0.585938 1.039062 0.703125 1.0625 C 0.828125 1.09375 0.953125 1.109375 1.078125 1.109375 C 1.296875 1.109375 1.476562 1.078125 1.625 1.015625 C 1.769531 0.960938 1.890625 0.867188 1.984375 0.734375 C 2.085938 0.609375 2.175781 0.425781 2.25 0.1875 L 0.109375 -5.359375 L 1.53125 -5.359375 L 2.859375 -1.640625 L 2.96875 -1.640625 L 4.265625 -5.359375 L 5.640625 -5.359375 L 3.484375 0.328125 C 3.316406 0.796875 3.128906 1.164062 2.921875 1.4375 C 2.710938 1.71875 2.46875 1.925781 2.1875 2.0625 C 1.914062 2.207031 1.582031 2.28125 1.1875 2.28125 Z M 1.1875 2.28125 "/></g></g><g transform="translate(29.464203, 11.426432)"><g><path d="M 0.921875 0 L 0.921875 -7.109375 L 3.78125 -7.109375 C 4.507812 -7.109375 5.0625 -6.9375 5.4375 -6.59375 C 5.8125 -6.257812 6 -5.789062 6 -5.1875 C 6 -4.757812 5.890625 -4.40625 5.671875 -4.125 C 5.453125 -3.851562 5.125 -3.644531 4.6875 -3.5 L 4.6875 -3.40625 C 4.914062 -3.300781 5.097656 -3.15625 5.234375 -2.96875 C 5.367188 -2.78125 5.5 -2.5 5.625 -2.125 L 6.34375 0 L 4.890625 0 L 4.203125 -2.125 C 4.128906 -2.332031 4.046875 -2.492188 3.953125 -2.609375 C 3.867188 -2.734375 3.753906 -2.820312 3.609375 -2.875 C 3.472656 -2.925781 3.296875 -2.953125 3.078125 -2.953125 L 2.328125 -2.953125 L 2.328125 0 Z M 3.609375 -4.078125 C 4.285156 -4.078125 4.625 -4.394531 4.625 -5.03125 C 4.625 -5.675781 4.285156 -6 3.609375 -6 L 2.328125 -6 L 2.328125 -4.078125 Z M 3.609375 -4.078125 "/></g></g><g transform="translate(36.109473, 11.426432)"><g><path d="M 1.4375 -6 C 1.195312 -6 1 -6.070312 0.84375 -6.21875 C 0.695312 -6.363281 0.625 -6.554688 0.625 -6.796875 C 0.625 -7.023438 0.695312 -7.210938 0.84375 -7.359375 C 1 -7.503906 1.195312 -7.578125 1.4375 -7.578125 C 1.601562 -7.578125 1.75 -7.539062 1.875 -7.46875 C 2 -7.40625 2.097656 -7.3125 2.171875 -7.1875 C 2.242188 -7.070312 2.28125 -6.941406 2.28125 -6.796875 C 2.28125 -6.640625 2.242188 -6.5 2.171875 -6.375 C 2.097656 -6.257812 2 -6.164062 1.875 -6.09375 C 1.75 -6.03125 1.601562 -6 1.4375 -6 Z M 0.765625 0 L 0.765625 -5.359375 L 2.125 -5.359375 L 2.125 0 Z M 0.765625 0 "/></g></g><g transform="translate(38.99703, 11.426432)"><g><path d="M 2.65625 0.109375 C 2.226562 0.109375 1.847656 0.00390625 1.515625 -0.203125 C 1.191406 -0.410156 0.9375 -0.722656 0.75 -1.140625 C 0.570312 -1.554688 0.484375 -2.066406 0.484375 -2.671875 C 0.484375 -3.285156 0.578125 -3.800781 0.765625 -4.21875 C 0.953125 -4.632812 1.210938 -4.945312 1.546875 -5.15625 C 1.890625 -5.363281 2.28125 -5.46875 2.71875 -5.46875 C 3.050781 -5.46875 3.335938 -5.410156 3.578125 -5.296875 C 3.828125 -5.179688 4.035156 -5 4.203125 -4.75 L 4.3125 -4.78125 L 4.3125 -7.515625 L 5.65625 -7.515625 L 5.65625 0 L 4.3125 0 L 4.3125 -0.6875 L 4.203125 -0.71875 C 4.054688 -0.457031 3.851562 -0.253906 3.59375 -0.109375 C 3.332031 0.0351562 3.019531 0.109375 2.65625 0.109375 Z M 3.09375 -1.046875 C 3.46875 -1.046875 3.765625 -1.179688 3.984375 -1.453125 C 4.203125 -1.722656 4.3125 -2.128906 4.3125 -2.671875 C 4.3125 -3.222656 4.203125 -3.632812 3.984375 -3.90625 C 3.765625 -4.1875 3.46875 -4.328125 3.09375 -4.328125 C 2.695312 -4.328125 2.390625 -4.191406 2.171875 -3.921875 C 1.960938 -3.660156 1.859375 -3.242188 1.859375 -2.671875 C 1.859375 -2.109375 1.960938 -1.695312 2.171875 -1.4375 C 2.390625 -1.175781 2.695312 -1.046875 3.09375 -1.046875 Z M 3.09375 -1.046875 "/></g></g><g transform="translate(45.423545, 11.426432)"><g><path d="M 5.296875 -2.375 L 1.859375 -2.375 C 1.890625 -1.90625 2.019531 -1.566406 2.25 -1.359375 C 2.476562 -1.148438 2.785156 -1.046875 3.171875 -1.046875 C 3.484375 -1.046875 3.734375 -1.101562 3.921875 -1.21875 C 4.117188 -1.332031 4.273438 -1.503906 4.390625 -1.734375 L 4.484375 -1.734375 L 5.390625 -1.15625 C 5.210938 -0.78125 4.945312 -0.472656 4.59375 -0.234375 C 4.238281 -0.00390625 3.765625 0.109375 3.171875 0.109375 C 2.617188 0.109375 2.140625 0.00390625 1.734375 -0.203125 C 1.335938 -0.421875 1.03125 -0.738281 0.8125 -1.15625 C 0.59375 -1.570312 0.484375 -2.078125 0.484375 -2.671875 C 0.484375 -3.285156 0.597656 -3.800781 0.828125 -4.21875 C 1.054688 -4.632812 1.363281 -4.945312 1.75 -5.15625 C 2.144531 -5.363281 2.585938 -5.46875 3.078125 -5.46875 C 3.835938 -5.46875 4.414062 -5.265625 4.8125 -4.859375 C 5.21875 -4.453125 5.421875 -3.863281 5.421875 -3.09375 C 5.421875 -2.8125 5.414062 -2.59375 5.40625 -2.4375 Z M 4.140625 -3.25 C 4.128906 -3.65625 4.035156 -3.953125 3.859375 -4.140625 C 3.679688 -4.328125 3.421875 -4.421875 3.078125 -4.421875 C 2.398438 -4.421875 2 -4.03125 1.875 -3.25 Z M 4.140625 -3.25 "/></g></g></g></g></g></svg>