<svg xmlns="http://www.w3.org/2000/svg" xmlns:xlink="http://www.w3.org/1999/xlink" width="120" zoomAndPan="magnify" viewBox="0 0 90 56.249996" height="75" preserveAspectRatio="xMidYMid meet" version="1.0"><defs><g/><clipPath id="f9b3a33a7d"><path d="M 0.59375 0 L 89.40625 0 L 89.40625 55.511719 L 0.59375 55.511719 Z M 0.59375 0 " clip-rule="nonzero"/></clipPath><clipPath id="942ca56942"><rect x="0" width="32" y="0" height="10"/></clipPath></defs><g clip-path="url(#f9b3a33a7d)"><path fill="#ffffff" d="M 0.59375 0 L 89.40625 0 L 89.40625 55.511719 L 0.59375 55.511719 Z M 0.59375 0 " fill-opacity="1" fill-rule="nonzero"/><path fill="#ffffff" d="M 0.59375 0 L 89.40625 0 L 89.40625 55.511719 L 0.59375 55.511719 Z M 0.59375 0 " fill-opacity="1" fill-rule="nonzero"/></g><g transform="matrix(1, 0, 0, 1, 29, 25)"><g clip-path="url(#942ca56942)"><g fill="#000000" fill-opacity="1"><g transform="translate(0.97944, 7.171048)"><g><path d="M 3.234375 -4.234375 L 3.234375 -3.53125 L 1.390625 -3.53125 L 1.390625 -2.40625 L 3.0625 -2.40625 L 3.0625 -1.71875 L 1.390625 -1.71875 L 1.390625 0 L 0.546875 0 L 0.546875 -4.234375 Z M 3.234375 -4.234375 "/></g></g><g transform="translate(4.396766, 7.171048)"><g><path d="M 0.859375 -3.578125 C 0.710938 -3.578125 0.59375 -3.617188 0.5 -3.703125 C 0.414062 -3.785156 0.375 -3.898438 0.375 -4.046875 C 0.375 -4.179688 0.414062 -4.289062 0.5 -4.375 C 0.59375 -4.46875 0.710938 -4.515625 0.859375 -4.515625 C 0.953125 -4.515625 1.035156 -4.492188 1.109375 -4.453125 C 1.191406 -4.410156 1.253906 -4.351562 1.296875 -4.28125 C 1.335938 -4.207031 1.359375 -4.128906 1.359375 -4.046875 C 1.359375 -3.953125 1.335938 -3.867188 1.296875 -3.796875 C 1.253906 -3.722656 1.191406 -3.664062 1.109375 -3.625 C 1.035156 -3.59375 0.953125 -3.578125 0.859375 -3.578125 Z M 0.453125 0 L 0.453125 -3.1875 L 1.265625 -3.1875 L 1.265625 0 Z M 0.453125 0 "/></g></g><g transform="translate(6.114102, 7.171048)"><g><path d="M 0.90625 0 L 0.0625 0 L 0.96875 -1.65625 L 0.109375 -3.1875 L 0.953125 -3.1875 L 1.515625 -2.140625 L 1.578125 -2.140625 L 2.140625 -3.1875 L 2.96875 -3.1875 L 2.125 -1.65625 L 3.015625 0 L 2.15625 0 L 1.5625 -1.171875 L 1.484375 -1.171875 Z M 0.90625 0 "/></g></g><g transform="translate(9.181601, 7.171048)"><g><path d="M 1.3125 0 L 0.546875 0 L 0.546875 -4.234375 L 1.640625 -4.234375 L 2.71875 -1.125 L 2.765625 -1.125 L 3.84375 -4.234375 L 4.90625 -4.234375 L 4.90625 0 L 4.109375 0 L 4.109375 -2.796875 L 4.046875 -2.8125 L 3.0625 0 L 2.359375 0 L 1.390625 -2.8125 L 1.3125 -2.796875 Z M 1.3125 0 "/></g></g><g transform="translate(14.63718, 7.171048)"><g><path d="M 0.703125 1.359375 C 0.566406 1.359375 0.441406 1.347656 0.328125 1.328125 C 0.222656 1.304688 0.132812 1.273438 0.0625 1.234375 L 0.1875 0.59375 L 0.25 0.578125 C 0.289062 0.597656 0.347656 0.613281 0.421875 0.625 C 0.492188 0.644531 0.566406 0.65625 0.640625 0.65625 C 0.765625 0.65625 0.867188 0.640625 0.953125 0.609375 C 1.046875 0.578125 1.117188 0.519531 1.171875 0.4375 C 1.234375 0.363281 1.289062 0.253906 1.34375 0.109375 L 0.0625 -3.1875 L 0.90625 -3.1875 L 1.703125 -0.96875 L 1.765625 -0.96875 L 2.546875 -3.1875 L 3.359375 -3.1875 L 2.078125 0.203125 C 1.972656 0.472656 1.859375 0.691406 1.734375 0.859375 C 1.617188 1.023438 1.476562 1.148438 1.3125 1.234375 C 1.144531 1.316406 0.941406 1.359375 0.703125 1.359375 Z M 0.703125 1.359375 "/></g></g><g transform="translate(18.060288, 7.171048)"><g><path d="M 0.546875 0 L 0.546875 -4.234375 L 2.25 -4.234375 C 2.6875 -4.234375 3.015625 -4.128906 3.234375 -3.921875 C 3.460938 -3.722656 3.578125 -3.445312 3.578125 -3.09375 C 3.578125 -2.832031 3.507812 -2.617188 3.375 -2.453125 C 3.25 -2.296875 3.054688 -2.171875 2.796875 -2.078125 L 2.796875 -2.03125 C 2.929688 -1.96875 3.035156 -1.878906 3.109375 -1.765625 C 3.191406 -1.648438 3.269531 -1.484375 3.34375 -1.265625 L 3.765625 0 L 2.90625 0 L 2.5 -1.265625 C 2.457031 -1.390625 2.410156 -1.488281 2.359375 -1.5625 C 2.304688 -1.632812 2.238281 -1.6875 2.15625 -1.71875 C 2.070312 -1.75 1.960938 -1.765625 1.828125 -1.765625 L 1.390625 -1.765625 L 1.390625 0 Z M 2.140625 -2.421875 C 2.546875 -2.421875 2.75 -2.609375 2.75 -2.984375 C 2.75 -3.367188 2.546875 -3.5625 2.140625 -3.5625 L 1.390625 -3.5625 L 1.390625 -2.421875 Z M 2.140625 -2.421875 "/></g></g><g transform="translate(22.012475, 7.171048)"><g><path d="M 0.859375 -3.578125 C 0.710938 -3.578125 0.59375 -3.617188 0.5 -3.703125 C 0.414062 -3.785156 0.375 -3.898438 0.375 -4.046875 C 0.375 -4.179688 0.414062 -4.289062 0.5 -4.375 C 0.59375 -4.46875 0.710938 -4.515625 0.859375 -4.515625 C 0.953125 -4.515625 1.035156 -4.492188 1.109375 -4.453125 C 1.191406 -4.410156 1.253906 -4.351562 1.296875 -4.28125 C 1.335938 -4.207031 1.359375 -4.128906 1.359375 -4.046875 C 1.359375 -3.953125 1.335938 -3.867188 1.296875 -3.796875 C 1.253906 -3.722656 1.191406 -3.664062 1.109375 -3.625 C 1.035156 -3.59375 0.953125 -3.578125 0.859375 -3.578125 Z M 0.453125 0 L 0.453125 -3.1875 L 1.265625 -3.1875 L 1.265625 0 Z M 0.453125 0 "/></g></g><g transform="translate(23.729812, 7.171048)"><g><path d="M 1.578125 0.0625 C 1.328125 0.0625 1.101562 0 0.90625 -0.125 C 0.707031 -0.25 0.550781 -0.429688 0.4375 -0.671875 C 0.332031 -0.921875 0.28125 -1.226562 0.28125 -1.59375 C 0.28125 -1.957031 0.335938 -2.265625 0.453125 -2.515625 C 0.566406 -2.765625 0.722656 -2.945312 0.921875 -3.0625 C 1.117188 -3.1875 1.347656 -3.25 1.609375 -3.25 C 1.816406 -3.25 1.988281 -3.210938 2.125 -3.140625 C 2.269531 -3.078125 2.394531 -2.972656 2.5 -2.828125 L 2.5625 -2.84375 L 2.5625 -4.46875 L 3.359375 -4.46875 L 3.359375 0 L 2.5625 0 L 2.5625 -0.40625 L 2.5 -0.421875 C 2.414062 -0.273438 2.296875 -0.15625 2.140625 -0.0625 C 1.984375 0.0195312 1.796875 0.0625 1.578125 0.0625 Z M 1.84375 -0.625 C 2.0625 -0.625 2.234375 -0.703125 2.359375 -0.859375 C 2.492188 -1.023438 2.5625 -1.269531 2.5625 -1.59375 C 2.5625 -1.914062 2.492188 -2.160156 2.359375 -2.328125 C 2.234375 -2.492188 2.0625 -2.578125 1.84375 -2.578125 C 1.601562 -2.578125 1.421875 -2.492188 1.296875 -2.328125 C 1.171875 -2.171875 1.109375 -1.925781 1.109375 -1.59375 C 1.109375 -1.257812 1.171875 -1.015625 1.296875 -0.859375 C 1.421875 -0.703125 1.601562 -0.625 1.84375 -0.625 Z M 1.84375 -0.625 "/></g></g><g transform="translate(27.551897, 7.171048)"><g><path d="M 3.15625 -1.40625 L 1.109375 -1.40625 C 1.128906 -1.132812 1.207031 -0.9375 1.34375 -0.8125 C 1.476562 -0.6875 1.660156 -0.625 1.890625 -0.625 C 2.078125 -0.625 2.222656 -0.65625 2.328125 -0.71875 C 2.441406 -0.789062 2.535156 -0.894531 2.609375 -1.03125 L 2.671875 -1.03125 L 3.203125 -0.6875 C 3.097656 -0.46875 2.941406 -0.285156 2.734375 -0.140625 C 2.523438 -0.00390625 2.242188 0.0625 1.890625 0.0625 C 1.554688 0.0625 1.269531 0 1.03125 -0.125 C 0.789062 -0.25 0.601562 -0.4375 0.46875 -0.6875 C 0.34375 -0.9375 0.28125 -1.238281 0.28125 -1.59375 C 0.28125 -1.957031 0.347656 -2.265625 0.484375 -2.515625 C 0.628906 -2.765625 0.816406 -2.945312 1.046875 -3.0625 C 1.273438 -3.1875 1.535156 -3.25 1.828125 -3.25 C 2.285156 -3.25 2.632812 -3.128906 2.875 -2.890625 C 3.113281 -2.648438 3.234375 -2.300781 3.234375 -1.84375 C 3.234375 -1.675781 3.226562 -1.546875 3.21875 -1.453125 Z M 2.46875 -1.9375 C 2.457031 -2.175781 2.398438 -2.347656 2.296875 -2.453125 C 2.191406 -2.566406 2.035156 -2.625 1.828125 -2.625 C 1.421875 -2.625 1.1875 -2.394531 1.125 -1.9375 Z M 2.46875 -1.9375 "/></g></g></g></g></g></svg>