<svg xmlns="http://www.w3.org/2000/svg" xmlns:xlink="http://www.w3.org/1999/xlink" width="200" zoomAndPan="magnify" viewBox="0 0 150 44.999999" height="60" preserveAspectRatio="xMidYMid meet" version="1.0"><defs><g/></defs><rect x="-15" width="180" fill="#ffffff" y="-4.5" height="53.999999" fill-opacity="1"/><rect x="-15" width="180" fill="#317c5a" y="-4.5" height="53.999999" fill-opacity="1"/><g fill="#ffffff" fill-opacity="1"><g transform="translate(16.760937, 32.815733)"><g><path d="M 12.53125 -16.390625 L 12.53125 -13.6875 L 5.375 -13.6875 L 5.375 -9.34375 L 11.859375 -9.34375 L 11.859375 -6.65625 L 5.375 -6.65625 L 5.375 0 L 2.125 0 L 2.125 -16.390625 Z M 12.53125 -16.390625 "/></g></g></g><g fill="#ffffff" fill-opacity="1"><g transform="translate(30.010551, 32.815733)"><g><path d="M 3.328125 -13.84375 C 2.765625 -13.84375 2.304688 -14.015625 1.953125 -14.359375 C 1.609375 -14.703125 1.4375 -15.140625 1.4375 -15.671875 C 1.4375 -16.203125 1.609375 -16.640625 1.953125 -16.984375 C 2.304688 -17.328125 2.765625 -17.5 3.328125 -17.5 C 3.703125 -17.5 4.035156 -17.421875 4.328125 -17.265625 C 4.617188 -17.109375 4.84375 -16.890625 5 -16.609375 C 5.164062 -16.335938 5.25 -16.023438 5.25 -15.671875 C 5.25 -15.328125 5.164062 -15.015625 5 -14.734375 C 4.84375 -14.460938 4.617188 -14.242188 4.328125 -14.078125 C 4.035156 -13.921875 3.703125 -13.84375 3.328125 -13.84375 Z M 1.78125 0 L 1.78125 -12.375 L 4.890625 -12.375 L 4.890625 0 Z M 1.78125 0 "/></g></g></g><g fill="#ffffff" fill-opacity="1"><g transform="translate(36.668986, 32.815733)"><g><path d="M 3.484375 0 L 0.21875 0 L 3.75 -6.421875 L 0.40625 -12.375 L 3.71875 -12.375 L 5.859375 -8.296875 L 6.125 -8.296875 L 8.28125 -12.375 L 11.5 -12.375 L 8.25 -6.421875 L 11.6875 0 L 8.375 0 L 6.046875 -4.515625 L 5.78125 -4.515625 Z M 3.484375 0 "/></g></g></g><g fill="#ffffff" fill-opacity="1"><g transform="translate(48.562258, 32.815733)"><g><path d="M 5.109375 0 L 2.125 0 L 2.125 -16.390625 L 6.375 -16.390625 L 10.515625 -4.34375 L 10.75 -4.34375 L 14.875 -16.390625 L 19.015625 -16.390625 L 19.015625 0 L 15.953125 0 L 15.953125 -10.828125 L 15.671875 -10.875 L 11.875 0 L 9.171875 0 L 5.390625 -10.875 L 5.109375 -10.828125 Z M 5.109375 0 "/></g></g></g><g fill="#ffffff" fill-opacity="1"><g transform="translate(69.714566, 32.815733)"><g><path d="M 2.734375 5.25 C 2.203125 5.25 1.722656 5.207031 1.296875 5.125 C 0.867188 5.039062 0.519531 4.929688 0.25 4.796875 L 0.734375 2.28125 L 0.9375 2.21875 C 1.125 2.3125 1.351562 2.390625 1.625 2.453125 C 1.90625 2.515625 2.191406 2.546875 2.484375 2.546875 C 2.984375 2.546875 3.398438 2.476562 3.734375 2.34375 C 4.066406 2.21875 4.347656 2.003906 4.578125 1.703125 C 4.816406 1.398438 5.023438 0.976562 5.203125 0.4375 L 0.265625 -12.375 L 3.515625 -12.375 L 6.59375 -3.765625 L 6.859375 -3.765625 L 9.859375 -12.375 L 13.015625 -12.375 L 8.046875 0.78125 C 7.648438 1.832031 7.210938 2.679688 6.734375 3.328125 C 6.265625 3.984375 5.707031 4.46875 5.0625 4.78125 C 4.414062 5.09375 3.640625 5.25 2.734375 5.25 Z M 2.734375 5.25 "/></g></g></g><g fill="#ffffff" fill-opacity="1"><g transform="translate(82.986599, 32.815733)"><g><path d="M 2.125 0 L 2.125 -16.390625 L 8.71875 -16.390625 C 10.414062 -16.390625 11.691406 -16 12.546875 -15.21875 C 13.410156 -14.4375 13.84375 -13.359375 13.84375 -11.984375 C 13.84375 -10.992188 13.59375 -10.179688 13.09375 -9.546875 C 12.59375 -8.910156 11.835938 -8.425781 10.828125 -8.09375 L 10.828125 -7.84375 C 11.347656 -7.625 11.765625 -7.289062 12.078125 -6.84375 C 12.398438 -6.40625 12.703125 -5.753906 12.984375 -4.890625 L 14.625 0 L 11.296875 0 L 9.6875 -4.90625 C 9.519531 -5.394531 9.332031 -5.773438 9.125 -6.046875 C 8.925781 -6.316406 8.664062 -6.515625 8.34375 -6.640625 C 8.03125 -6.765625 7.617188 -6.828125 7.109375 -6.828125 L 5.375 -6.828125 L 5.375 0 Z M 8.328125 -9.390625 C 9.890625 -9.390625 10.671875 -10.125 10.671875 -11.59375 C 10.671875 -13.082031 9.890625 -13.828125 8.328125 -13.828125 L 5.375 -13.828125 L 5.375 -9.390625 Z M 8.328125 -9.390625 "/></g></g></g><g fill="#ffffff" fill-opacity="1"><g transform="translate(98.309974, 32.815733)"><g><path d="M 3.328125 -13.84375 C 2.765625 -13.84375 2.304688 -14.015625 1.953125 -14.359375 C 1.609375 -14.703125 1.4375 -15.140625 1.4375 -15.671875 C 1.4375 -16.203125 1.609375 -16.640625 1.953125 -16.984375 C 2.304688 -17.328125 2.765625 -17.5 3.328125 -17.5 C 3.703125 -17.5 4.035156 -17.421875 4.328125 -17.265625 C 4.617188 -17.109375 4.84375 -16.890625 5 -16.609375 C 5.164062 -16.335938 5.25 -16.023438 5.25 -15.671875 C 5.25 -15.328125 5.164062 -15.015625 5 -14.734375 C 4.84375 -14.460938 4.617188 -14.242188 4.328125 -14.078125 C 4.035156 -13.921875 3.703125 -13.84375 3.328125 -13.84375 Z M 1.78125 0 L 1.78125 -12.375 L 4.890625 -12.375 L 4.890625 0 Z M 1.78125 0 "/></g></g></g><g fill="#ffffff" fill-opacity="1"><g transform="translate(104.968409, 32.815733)"><g><path d="M 6.109375 0.234375 C 5.128906 0.234375 4.265625 0 3.515625 -0.46875 C 2.765625 -0.945312 2.175781 -1.664062 1.75 -2.625 C 1.320312 -3.59375 1.109375 -4.773438 1.109375 -6.171875 C 1.109375 -7.585938 1.328125 -8.773438 1.765625 -9.734375 C 2.203125 -10.703125 2.804688 -11.421875 3.578125 -11.890625 C 4.359375 -12.367188 5.253906 -12.609375 6.265625 -12.609375 C 7.035156 -12.609375 7.703125 -12.472656 8.265625 -12.203125 C 8.835938 -11.941406 9.316406 -11.53125 9.703125 -10.96875 L 9.9375 -11.03125 L 9.9375 -17.34375 L 13.046875 -17.34375 L 13.046875 0 L 9.9375 0 L 9.9375 -1.609375 L 9.703125 -1.65625 C 9.359375 -1.070312 8.882812 -0.609375 8.28125 -0.265625 C 7.6875 0.0664062 6.960938 0.234375 6.109375 0.234375 Z M 7.125 -2.40625 C 8 -2.40625 8.6875 -2.710938 9.1875 -3.328125 C 9.695312 -3.953125 9.953125 -4.898438 9.953125 -6.171875 C 9.953125 -7.453125 9.695312 -8.40625 9.1875 -9.03125 C 8.6875 -9.65625 8 -9.96875 7.125 -9.96875 C 6.207031 -9.96875 5.507812 -9.660156 5.03125 -9.046875 C 4.550781 -8.441406 4.3125 -7.484375 4.3125 -6.171875 C 4.3125 -4.878906 4.550781 -3.925781 5.03125 -3.3125 C 5.507812 -2.707031 6.207031 -2.40625 7.125 -2.40625 Z M 7.125 -2.40625 "/></g></g></g><g fill="#ffffff" fill-opacity="1"><g transform="translate(119.787351, 32.815733)"><g><path d="M 12.21875 -5.484375 L 4.265625 -5.484375 C 4.359375 -4.410156 4.664062 -3.628906 5.1875 -3.140625 C 5.71875 -2.648438 6.429688 -2.40625 7.328125 -2.40625 C 8.046875 -2.40625 8.625 -2.535156 9.0625 -2.796875 C 9.5 -3.066406 9.851562 -3.46875 10.125 -4 L 10.359375 -4 L 12.421875 -2.6875 C 12.023438 -1.8125 11.414062 -1.101562 10.59375 -0.5625 C 9.78125 -0.03125 8.691406 0.234375 7.328125 0.234375 C 6.054688 0.234375 4.953125 -0.00390625 4.015625 -0.484375 C 3.085938 -0.972656 2.367188 -1.695312 1.859375 -2.65625 C 1.359375 -3.625 1.109375 -4.796875 1.109375 -6.171875 C 1.109375 -7.578125 1.375 -8.765625 1.90625 -9.734375 C 2.4375 -10.703125 3.15625 -11.421875 4.0625 -11.890625 C 4.96875 -12.367188 5.984375 -12.609375 7.109375 -12.609375 C 8.859375 -12.609375 10.195312 -12.144531 11.125 -11.21875 C 12.0625 -10.289062 12.53125 -8.929688 12.53125 -7.140625 C 12.53125 -6.484375 12.503906 -5.976562 12.453125 -5.625 Z M 9.5625 -7.484375 C 9.53125 -8.429688 9.304688 -9.117188 8.890625 -9.546875 C 8.484375 -9.972656 7.890625 -10.1875 7.109375 -10.1875 C 5.535156 -10.1875 4.613281 -9.285156 4.34375 -7.484375 Z M 9.5625 -7.484375 "/></g></g></g></svg>